# xmcd
#
# Track frame offsets:
#	150
#	8593
#	17412
#	40092
#	58732
#	79110
#	88131
#	104321
#	114141
#	129966
#	139318
#	161831
#	176242
#	194305
#	210561
#	228512
#	235104
#	248776
#	259842
#	276664
#	289283
#	302332
#	315093
#	327437
#	346674
#
# Disc length: 4675 seconds
#
# Revision: 0
# Processed by: cddbd v1.5.1PL2 Copyright (c) Steve Scherf et al.
# Submitted via: EasyCDDAExtractor 4.6.9.1
#
DISCID=56124119
DTITLE=Minuta Ticha - Zivot v obrazech
DYEAR=2005
DGENRE=Hip-Hop
TTITLE0=Intro (DJ Fukkel)
TTITLE1=Hledam (DJ Fukkel)
TTITLE2=Cirkus (Lukas, Sarka, DJ Kika)
TTITLE3=Obrazy
TTITLE4=Hranice (Lukas, Nykla, Paler, Exo)
TTITLE5=Dve tvare
TTITLE6=Muza (Matyasz)
TTITLE7=Skit (DJ Kika)
TTITLE8=Recepty
TTITLE9=Dobry/spatny den
TTITLE10=Nemoc (Lukas)
TTITLE11=Zivote! (DJ Fukkel)
TTITLE12=Ze srdce (Packa, Adash)
TTITLE13=Potok
TTITLE14=Bolest (Ursula Wojkowska)
TTITLE15=Skit (Jeden z tisice)
TTITLE16=Kolobeh (Tao)
TTITLE17=Dam Ti silu
TTITLE18=Uvnitr stale stejni (Paler, DJ Fukkel)
TTITLE19=Cesta (Doktor)
TTITLE20=Nebudu cekat na dny
TTITLE21=Dam Ti silu [remix]
TTITLE22=Mezi kapkami deste
TTITLE23=Bonus - Patek 13.teho - Autobus (Minuta Ticha)
TTITLE24=Outro (Fakr)
EXTD=http://www.aerosolart.sk\n
EXTT0=
EXTT1=
EXTT2=
EXTT3=
EXTT4=
EXTT5=
EXTT6=
EXTT7=
EXTT8=
EXTT9=
EXTT10=
EXTT11=
EXTT12=
EXTT13=
EXTT14=
EXTT15=
EXTT16=
EXTT17=
EXTT18=
EXTT19=
EXTT20=
EXTT21=
EXTT22=
EXTT23=
EXTT24=
PLAYORDER=
